PathFileType	4	(X/Y/Z)	 s01c0001.trc
DataRate	CameraRate	NumFrames	NumMarkers	Units	OrigDataRate	OrigDataStartFrame	OrigNumFrames
200	200	4	49	mm	200	1001	2000
Frame#	Time	racr			lacr			c7			jug			rlel			rdr			llel			ldr			s2			lic			ric			lasi			rasi			rpsi			lpsi			rgt			lgt			rth1			rth2			rth3			rth4			rlfc			rmfc			rsh1			rsh2			rsh3			rsh4			rlmal			rmmal			rcal			rtoe			rmt5			rmt1			lth1			lth2			lth4			lth3			llfc			lmfc			lsh1			lsh2			lsh3			lsh4			llmal			lmmal			lcal			ltoe			lmt1			lmt5			
		X1	Y1	Z1	X2	Y2	Z2	X3	Y3	Z3	X4	Y4	Z4	X5	Y5	Z5	X6	Y6	Z6	X7	Y7	Z7	X8	Y8	Z8	X9	Y9	Z9	X10	Y10	Z10	X11	Y11	Z11	X12	Y12	Z12	X13	Y13	Z13	X14	Y14	Z14	X15	Y15	Z15	X16	Y16	Z16	X17	Y17	Z17	X18	Y18	Z18	X19	Y19	Z19	X20	Y20	Z20	X21	Y21	Z21	X22	Y22	Z22	X23	Y23	Z23	X24	Y24	Z24	X25	Y25	Z25	X26	Y26	Z26	X27	Y27	Z27	X28	Y28	Z28	X29	Y29	Z29	X30	Y30	Z30	X31	Y31	Z31	X32	Y32	Z32	X33	Y33	Z33	X34	Y34	Z34	X35	Y35	Z35	X36	Y36	Z36	X37	Y37	Z37	X38	Y38	Z38	X39	Y39	Z39	X40	Y40	Z40	X41	Y41	Z41	X42	Y42	Z42	X43	Y43	Z43	X44	Y44	Z44	X45	Y45	Z45	X46	Y46	Z46	X47	Y47	Z47	X48	Y48	Z48	X49	Y49	Z49	
1001	5.0050	497.424941	1501.265141	-349.011933	307.518827	1482.497528	-689.294809	379.569713	1530.792823	-497.813123	509.996604	1459.135323	-567.461548	557.494033	1253.272810	-184.920359	716.464991	1057.040478	-73.915853	210.193046	1209.900501	-783.565044	215.833434	1003.093408	-953.779806	339.704255	1020.300112	-461.158220	367.640805	1089.732510	-678.963764	543.935103	1061.836541	-394.359884	419.755162	1025.611273	-681.379625	572.292366	1014.342485	-446.727945	382.133421	1050.761042	-423.746624	326.503414	1054.259848	-513.679814	515.463258	928.133735	-361.194842	336.197646	922.633232	-683.889420	536.751570	808.832621	-350.874073	542.116768	726.766539	-360.515715	535.796571	637.203192	-375.629522	579.946656	730.460109	-400.151535	505.178319	517.295487	-388.442097	444.925771	492.885950	-477.119037	490.779536	401.842713	-339.270060	485.375125	317.571866	-344.161173	470.397076	229.554742	-353.212666	510.387183	317.169361	-400.563296	447.219666	99.101949	-371.512533	447.593957	122.341424	-459.403105	393.735308	67.860177	-415.850186	651.935519	91.634006	-492.285872	581.429216	50.542328	-391.166790	561.335144	62.255400	-504.547438	320.607150	803.177303	-689.933032	340.338005	717.005102	-690.204087	390.189457	727.083783	-710.011177	356.346438	633.849401	-677.731660	364.057042	520.291106	-654.647762	391.975513	489.701410	-547.463979	305.628721	409.880548	-666.894872	303.907424	323.211288	-657.909300	304.849534	238.393293	-639.843608	366.589632	322.693901	-655.581585	317.389078	104.834790	-620.060610	382.598682	116.340284	-558.730656	304.861861	64.549820	-560.219737	543.482816	96.812750	-692.400822	498.497019	65.667688	-617.312876	426.206210	57.268103	-707.117997	
1002	5.0100	497.427284	1501.263209	-349.017253	307.512190	1482.503498	-689.320142	379.545502	1530.801127	-497.857309	509.990406	1459.139793	-567.459946	557.490811	1253.268398	-184.906659	716.480543	1057.046017	-73.918507	210.173118	1209.916270	-783.567911	215.790051	1003.103367	-953.784709	339.699931	1020.326181	-461.142585	367.620159	1089.734751	-678.948734	543.950431	1061.821018	-394.361383	419.751343	1025.614751	-681.365811	572.297514	1014.375922	-446.711554	382.133349	1050.752477	-423.744984	326.485998	1054.271543	-513.671274	515.445087	928.133431	-361.190164	336.182921	922.626849	-683.879531	536.767228	808.824413	-350.875264	542.119487	726.762607	-360.510478	535.772285	637.181121	-375.606306	579.941796	730.464298	-400.142826	505.166787	517.274116	-388.424699	444.909342	492.874652	-477.112848	490.791012	401.853318	-339.273651	485.421399	317.596496	-344.185052	470.389161	229.566039	-353.207310	510.378950	317.168449	-400.564015	447.197829	99.125414	-371.495915	447.589303	122.342231	-459.399257	393.738165	67.864864	-415.848208	651.936446	91.636605	-492.287038	581.473657	50.499521	-391.183996	561.339239	62.254884	-504.546400	320.598159	803.176120	-689.920165	340.312092	716.999899	-690.192304	390.178742	727.082623	-709.999148	356.328559	633.855019	-677.709305	364.033723	520.287177	-654.638384	391.957918	489.687763	-547.435022	305.603581	409.885165	-666.886243	303.880695	323.220662	-657.900835	304.838872	238.389385	-639.832719	366.575247	322.692369	-655.573138	317.379856	104.826392	-620.069179	382.581812	116.334184	-558.723152	304.863381	64.574930	-560.226537	543.468693	96.822084	-692.414554	498.472531	65.675052	-617.296990	426.214958	57.262690	-707.112655	
1003	5.0150	497.419808	1501.265457	-349.019988	307.519967	1482.507922	-689.312393	379.553830	1530.797410	-497.905002	509.996974	1459.139717	-567.461476	557.512577	1253.263333	-184.917113	716.490289	1057.043379	-73.944311	210.190828	1209.885539	-783.628995	215.756359	1003.108977	-953.786978	339.699809	1020.316276	-461.118661	367.602137	1089.725399	-678.942243	543.951549	1061.832917	-394.362508	419.735157	1025.613144	-681.360915	572.277150	1014.359507	-446.714755	382.132166	1050.762590	-423.732917	326.489469	1054.267716	-513.651540	515.446667	928.131722	-361.165774	336.184572	922.630252	-683.874752	536.747207	808.834331	-350.861143	542.112472	726.769307	-360.515433	535.788203	637.204751	-375.616281	579.935869	730.465488	-400.147137	505.161430	517.266753	-388.410586	444.928444	492.886422	-477.124648	490.766477	401.846639	-339.265659	485.378219	317.591556	-344.172117	470.387212	229.554389	-353.202424	510.376737	317.158949	-400.554197	447.210685	99.125089	-371.498230	447.590540	122.342788	-459.398871	393.740377	67.860630	-415.844971	651.936565	91.636767	-492.286295	581.480653	50.521328	-391.187824	561.338307	62.253203	-504.545270	320.587090	803.174659	-689.909234	340.301189	717.007117	-690.195606	390.166250	727.080342	-709.988105	356.314585	633.857627	-677.710697	364.022698	520.283919	-654.629040	391.941068	489.719921	-547.424067	305.587142	409.888707	-666.876699	303.885474	323.210433	-657.881743	304.829165	238.388094	-639.823432	366.560616	322.695541	-655.567727	317.385275	104.824985	-620.075130	382.583318	116.350175	-558.725689	304.858751	64.562112	-560.223924	543.488554	96.812916	-692.407674	498.486288	65.677993	-617.301028	426.219787	57.254256	-707.122110	
1004	5.0200	497.419708	1501.267593	-349.025294	307.490266	1482.517364	-689.314688	379.545503	1530.801132	-497.857310	509.991175	1459.132853	-567.461281	557.506657	1253.271023	-184.931199	716.500998	1057.047692	-73.950556	210.188257	1209.891126	-783.639082	215.724681	1003.117732	-953.788942	339.696447	1020.310432	-461.115301	367.591608	1089.715425	-678.941727	543.941403	1061.836964	-394.354559	419.717959	1025.611752	-681.363572	572.289479	1014.357829	-446.708451	382.127503	1050.760215	-423.726325	326.478063	1054.260347	-513.657628	515.438234	928.124816	-361.169993	336.173451	922.630825	-683.866960	536.733680	808.830849	-350.851182	542.083967	726.753197	-360.489384	535.781910	637.190134	-375.602174	579.920700	730.464372	-400.115779	505.151890	517.288521	-388.423478	444.912354	492.891690	-477.094600	490.776801	401.855967	-339.255507	485.393562	317.595147	-344.170637	470.387734	229.560937	-353.196227	510.358792	317.156513	-400.554085	447.213086	99.100482	-371.497357	447.589836	122.342950	-459.399542	393.738165	67.864861	-415.848211	651.937926	91.639269	-492.288031	581.447159	50.556159	-391.176057	561.334429	62.257000	-504.545374	320.577369	803.175243	-689.898918	340.300034	716.989241	-690.176512	390.158328	727.076007	-709.972658	356.299156	633.842576	-677.683811	364.011673	520.280663	-654.619696	391.919927	489.688544	-547.425694	305.572146	409.889365	-666.862353	303.874914	323.214531	-657.883794	304.822969	238.382532	-639.819483	366.543376	322.695258	-655.560525	317.375483	104.838183	-620.064455	382.575705	116.345028	-558.727943	304.871002	64.548971	-560.231927	543.471004	96.812449	-692.396427	498.471421	65.686276	-617.290200	426.218668	57.257039	-707.118095	
